# ProBuilder 4.0.5
# https://unity3d.com/unity/features/worldbuilding/probuilder
# 14/10/2019 9:40:45

mtllib ./Base.mtl
o Base

g Base
v 4.64 -0.52 7.8602
v -5.36 -0.52 7.8602
v 4.64 0.48 7.8602
v -5.36 0.48 7.8602
v -10.3602 -0.52 2.86
v -10.3602 -0.52 -7.14
v -10.3602 0.48 2.86
v -10.3602 0.48 -7.14
v -5.36 -0.52 -12.1402
v 4.64 -0.52 -12.1402
v -5.36 0.48 -12.1402
v 4.64 0.48 -12.1402
v 10.3485 -0.52 -7.14
v 10.3485 -0.52 2.86
v 10.3485 0.48 -7.14
v 10.3485 0.48 2.86
v 4.64 0.48 2.86
v -5.36 0.48 2.86
v 4.64 0.48 -7.14
v -5.36 0.48 -7.14
v 4.64 -0.52 -7.14
v -5.36 -0.52 -7.14
v 4.64 -0.52 2.86
v -5.36 -0.52 2.86
v 6.3484 -0.52 -7.14
v 6.3484 -0.52 2.86
v 6.3484 0.48 -7.14
v 6.3484 0.48 2.86
v 4.64 1.4801 2.86
v 4.64 1.4801 -7.14
v 6.3484 1.4801 2.86
v 6.3484 1.4801 -7.14
v 10.3485 1.4801 -7.14
v 10.3485 1.4801 2.86
v -7.3601 -0.52 2.86
v -7.3601 -0.52 -7.14
v -7.3601 0.48 2.86
v -7.3601 0.48 -7.14
v -5.36 1.4801 -7.14
v -5.36 1.4801 2.86
v -7.3601 1.4801 -7.14
v -7.3601 1.4801 2.86
v -10.3602 1.4801 2.86
v -10.3602 1.4801 -7.14
v 4.64 -0.52 4.8601
v -5.36 -0.52 4.8601
v 4.64 0.48 4.8601
v -5.36 0.48 4.8601
v -5.36 1.4801 4.8601
v 4.64 1.4801 4.8601
v 4.64 1.4801 7.8602
v -5.36 1.4801 7.8602
v -5.36 -0.52 -9.1401
v 4.64 -0.52 -9.1401
v -5.36 0.48 -9.1401
v 4.64 0.48 -9.1401
v 4.64 1.4801 -9.1401
v -5.36 1.4801 -9.1401
v -5.36 1.4801 -12.1402
v 4.64 1.4801 -12.1402

vt 4.64585 -1.00005
vt -5.35415 -1.00005
vt 4.64585 -5.00679E-05
vt -5.35415 -5.00679E-05
vt 5 -1.00005
vt -5 -1.00005
vt 5 -5.00679E-05
vt -5 -5.00679E-05
vt 5.35415 -1.00005
vt -4.64585 -1.00005
vt 5.35415 -5.00679E-05
vt -4.64585 -5.00679E-05
vt -4.64585 5
vt 5.35415 5
vt -4.64585 -5
vt 5.35415 -5
vt 4.64585 -5
vt -5.35415 -5
vt 4.64585 5
vt -5.35415 5
vt 6.35425 -5
vt 6.35425 5
vt -6.35425 -5.00679E-05
vt -6.35425 -1.00005
vt 6.35425 -1.00005
vt 6.35425 -5.00679E-05
vt -6.35425 5
vt -6.35425 -5
vt 5 1.00005
vt -5 1.00005
vt 6.35425 1.00005
vt 4.64585 1.00005
vt -4.64585 1.00005
vt -6.35425 1.00005
vt -10.35435 1.00005
vt -10.35435 -5.00679E-05
vt 10.35435 -5.00679E-05
vt 10.35435 1.00005
vt -10.35435 5
vt -10.35435 -5
vt 10.35435 -5
vt 10.35435 5
vt -10.35435 -1.00005
vt 10.35435 -1.00005
vt -7.35425 5
vt -7.35425 -5
vt -7.35425 -5.00679E-05
vt -7.35425 -1.00005
vt 7.35425 -1.00005
vt 7.35425 -5.00679E-05
vt 7.35425 -5
vt 7.35425 5
vt 7.35425 1.00005
vt 5.35415 1.00005
vt -5.35415 1.00005
vt -7.35425 1.00005
vt 4.64585 7.0001
vt -5.35415 7.0001
vt -7.0001 -5.00679E-05
vt -7.0001 -1.00005
vt 7.0001 -1.00005
vt 7.0001 -5.00679E-05
vt 5.35415 7.0001
vt -4.64585 7.0001
vt 7.0001 1.00005
vt -7.0001 1.00005
vt -10.0002 1.00005
vt -10.0002 -5.00679E-05
vt 10.0002 -5.00679E-05
vt 10.0002 1.00005
vt 5.35415 10.0002
vt -4.64585 10.0002
vt 4.64585 10.0002
vt -5.35415 10.0002
vt -10.0002 -1.00005
vt 10.0002 -1.00005
vt -5.35415 -7.0001
vt 4.64585 -7.0001
vt -4.64585 -7.0001
vt 5.35415 -7.0001
vt -5.35415 -10.0002
vt 4.64585 -10.0002
vt -4.64585 -10.0002
vt 5.35415 -10.0002

vn 0 0 1
vn -1 0 0
vn 0 0 -1
vn 1 0 0
vn 0 1 0
vn 0 -1 0

g Base
usemtl ProBuilderDefault
f 3/3/1 4/4/1 2/2/1 1/1/1
f 7/7/2 8/8/2 6/6/2 5/5/2
f 11/11/3 12/12/3 10/10/3 9/9/3
f 15/7/4 16/8/4 14/6/4 13/5/4
f 19/15/5 20/16/5 18/14/5 17/13/5
f 23/19/6 24/20/6 22/18/6 21/17/6
f 25/21/6 26/22/6 23/19/6 21/17/6
f 27/23/3 25/24/3 21/10/3 19/12/3
f 26/25/1 28/26/1 17/3/1 23/1/1
f 31/27/5 32/28/5 30/15/5 29/13/5
f 29/29/2 30/30/2 19/8/2 17/7/2
f 31/31/1 29/32/1 17/3/1 28/26/1
f 30/33/3 32/34/3 27/23/3 19/12/3
f 33/29/4 34/30/4 16/8/4 15/7/4
f 33/35/3 15/36/3 27/23/3 32/34/3
f 16/37/1 34/38/1 31/31/1 28/26/1
f 34/39/5 33/40/5 32/28/5 31/27/5
f 13/41/6 14/42/6 26/22/6 25/21/6
f 15/36/3 13/43/3 25/24/3 27/23/3
f 14/44/1 16/37/1 28/26/1 26/25/1
f 35/45/6 36/46/6 22/18/6 24/20/6
f 37/47/1 35/48/1 24/2/1 18/4/1
f 36/49/3 38/50/3 20/11/3 22/9/3
f 41/51/5 42/52/5 40/14/5 39/16/5
f 39/29/4 40/30/4 18/8/4 20/7/4
f 41/53/3 39/54/3 20/11/3 38/50/3
f 40/55/1 42/56/1 37/47/1 18/4/1
f 43/29/2 44/30/2 8/8/2 7/7/2
f 43/35/1 7/36/1 37/47/1 42/56/1
f 8/37/3 44/38/3 41/53/3 38/50/3
f 44/41/5 43/42/5 42/52/5 41/51/5
f 5/39/6 6/40/6 36/46/6 35/45/6
f 7/36/1 5/43/1 35/48/1 37/47/1
f 6/44/3 8/37/3 38/50/3 36/49/3
f 45/57/6 46/58/6 24/20/6 23/19/6
f 47/59/4 45/60/4 23/6/4 17/8/4
f 46/61/2 48/62/2 18/7/2 24/5/2
f 49/63/5 50/64/5 29/13/5 40/14/5
f 40/54/3 29/33/3 17/12/3 18/11/3
f 49/65/2 40/29/2 18/7/2 48/62/2
f 29/30/4 50/66/4 47/59/4 17/8/4
f 51/32/1 52/55/1 4/4/1 3/3/1
f 51/67/4 3/68/4 47/59/4 50/66/4
f 4/69/2 52/70/2 49/65/2 48/62/2
f 52/71/5 51/72/5 50/64/5 49/63/5
f 1/73/6 2/74/6 46/58/6 45/57/6
f 3/68/4 1/75/4 45/60/4 47/59/4
f 2/76/2 4/69/2 48/62/2 46/61/2
f 53/77/6 54/78/6 21/17/6 22/18/6
f 55/59/2 53/60/2 22/6/2 20/8/2
f 54/61/4 56/62/4 19/7/4 21/5/4
f 57/79/5 58/80/5 39/16/5 30/15/5
f 30/32/1 39/55/1 20/4/1 19/3/1
f 57/65/4 30/29/4 19/7/4 56/62/4
f 39/30/2 58/66/2 55/59/2 20/8/2
f 59/54/3 60/33/3 12/12/3 11/11/3
f 9/81/6 10/82/6 54/78/6 53/77/6
f 11/68/2 9/75/2 53/60/2 55/59/2
f 10/76/4 12/69/4 56/62/4 54/61/4
f 59/67/2 11/68/2 55/59/2 58/66/2
f 12/69/4 60/70/4 57/65/4 56/62/4
f 60/83/5 59/84/5 58/80/5 57/79/5

