# ProBuilder 4.0.5
# https://unity3d.com/unity/features/worldbuilding/probuilder
# 14/10/2019 9:37:43

mtllib ./GreenPlatform.mtl
o GreenPlatform

g GreenPlatform
v -22.89 0.2000008 2.610001
v -44.89 0.2000007 2.610001
v -22.89 1.200001 2.610001
v -44.89 1.200001 2.610001
v -53.8901 0.2000007 2.610001
v -53.8901 0.2000007 -7.389999
v -53.8901 1.200001 2.610001
v -53.8901 1.200001 -7.389999
v -44.89 0.2000007 -7.389999
v -22.89 0.2000008 -7.389999
v -44.89 1.200001 -7.389999
v -22.89 1.200001 -7.389999
v -44.89 1.200001 22.6102
v -44.89 0.2000007 22.6102
v -53.8901 1.200001 22.6102
v -53.8901 0.2000007 22.6102
v -44.89 0.2000007 -22.3902
v -44.89 1.200001 -22.3902
v -53.8901 0.2000007 -22.3902
v -53.8901 1.200001 -22.3902
v -44.89 0.2000007 -15.3901
v -44.89 1.200001 -15.3901
v -53.8901 0.2000007 -15.3901
v -53.8901 1.200001 -15.3901
v -44.89 1.200001 12.6101
v -44.89 0.2000007 12.6101
v -53.8901 1.200001 12.6101
v -53.8901 0.2000007 12.6101
v -86.05396 0.2000007 12.6101
v -86.05396 1.200001 12.6101
v -86.05396 0.2000007 22.6102
v -86.05396 1.200001 22.6102
v -79.3767 0.2000007 12.6101
v -79.3767 1.200001 12.6101
v -79.3767 0.2000007 22.6102
v -79.3767 1.200001 22.6102
v -85.60633 1.200001 -15.3901
v -85.60633 0.2000007 -15.3901
v -85.60633 1.200001 -22.3902
v -85.60633 0.2000007 -22.3902
v -79.60623 1.200001 -15.3901
v -79.60623 0.2000007 -15.3901
v -79.60623 1.200001 -22.3902
v -79.60623 0.2000007 -22.3902
v -79.60623 1.200001 -6.887896
v -79.60623 0.2000007 -6.887896
v -85.60633 1.200001 -6.887896
v -85.60633 0.2000007 -6.887896
v -79.3767 0.2000007 2.910721
v -79.3767 1.200001 2.910721
v -86.05396 0.2000007 2.910721
v -86.05396 1.200001 2.910721

vt 0 0
vt -22 -1.490116E-08
vt 0 1
vt -22 1
vt -10 -1.490116E-08
vt -10 1
vt 22 -1.490116E-08
vt 22 1
vt 10 0
vt 10 1
vt 0 -10
vt 22 -10
vt -22 -10
vt -31.0001 0
vt -31.0001 -10
vt -31.0001 1
vt 31.0001 -1.490116E-08
vt 31.0001 1
vt 31.0001 -10
vt 18.0001 -1.490116E-08
vt 18.0001 1
vt -31.0001 -18.0001
vt -22 -18.0001
vt 22 -18.0001
vt 31.0001 -18.0001
vt -18.0001 1
vt -18.0001 -1.490116E-08
vt 31.0001 10.0001
vt 22 10.0001
vt -22 10.0001
vt -31.0001 10.0001
vt -20.0002 1
vt -20.0002 -1.490116E-08
vt 31.0001 20.0002
vt 22 20.0002
vt -22 20.0002
vt -31.0001 20.0002
vt 20.0002 -1.490116E-08
vt 20.0002 1
vt 56.4867 -1.490116E-08
vt 56.4867 1
vt -56.4867 20.0002
vt -56.4867 10.0001
vt 56.4867 10.0001
vt 56.4867 20.0002
vt -56.4867 1
vt -56.4867 -1.490116E-08
vt 25.0002 -1.490116E-08
vt 25.0002 1
vt -31.0001 -25.0002
vt -22 -25.0002
vt 22 -25.0002
vt 31.0001 -25.0002
vt -25.0002 1
vt -25.0002 -1.490116E-08
vt -56.71623 1
vt -56.71623 -1.490116E-08
vt 56.71623 -25.0002
vt 56.71623 -18.0001
vt -56.71623 -18.0001
vt -56.71623 -25.0002
vt 56.71623 -1.490116E-08
vt 56.71623 1
vt -62.71633 1
vt -62.71633 -1.490116E-08
vt 62.71633 -25.0002
vt 62.71633 -18.0001
vt -62.71633 -18.0001
vt -62.71633 -25.0002
vt 62.71633 -1.490116E-08
vt 62.71633 1
vt 9.497896 1
vt 9.497896 -1.490116E-08
vt 62.71633 -9.497896
vt 56.71623 -9.497896
vt -56.71623 -9.497896
vt -62.71633 -9.497896
vt -9.497896 -1.490116E-08
vt -9.497896 1
vt 63.16396 -1.490116E-08
vt 63.16396 1
vt -63.16396 20.0002
vt -63.16396 10.0001
vt 63.16396 10.0001
vt 63.16396 20.0002
vt -63.16396 1
vt -63.16396 -1.490116E-08
vt -0.3007205 -1.490116E-08
vt -0.3007205 1
vt -63.16396 0.3007205
vt -56.4867 0.3007205
vt 56.4867 0.3007205
vt 63.16396 0.3007205
vt 0.3007205 1
vt 0.3007205 -1.490116E-08

vn 0 0 1
vn -1 0 0
vn 0 0 -1
vn 1 0 0
vn 0 1 0
vn 6.773255E-10 -1 0

g GreenPlatform
usemtl ProBuilderDefault
f 3/3/1 4/4/1 2/2/1 1/1/1
f 7/3/2 8/6/2 6/5/2 5/1/2
f 11/8/3 12/3/3 10/1/3 9/7/3
f 12/10/4 3/3/4 1/1/4 10/9/4
f 12/11/5 11/12/5 4/7/5 3/1/5
f 1/1/6 2/2/6 9/13/6 10/11/6
f 5/14/6 6/15/6 9/13/6 2/2/6
f 15/16/1 16/14/1 14/2/1 13/4/1
f 19/17/3 20/18/3 18/8/3 17/7/3
f 8/19/5 7/17/5 4/7/5 11/12/5
f 21/20/4 22/21/4 11/10/4 9/9/4
f 23/22/6 21/23/6 9/13/6 6/15/6
f 22/24/5 24/25/5 8/19/5 11/12/5
f 24/26/2 23/27/2 6/5/2 8/6/2
f 25/6/4 26/5/4 2/1/4 4/3/4
f 27/28/5 25/29/5 4/7/5 7/17/5
f 26/30/6 28/31/6 5/14/6 2/2/6
f 28/9/2 27/10/2 7/3/2 5/1/2
f 13/32/4 14/33/4 26/5/4 25/6/4
f 15/34/5 13/35/5 25/29/5 27/28/5
f 14/36/6 16/37/6 28/31/6 26/30/6
f 31/38/2 32/39/2 30/10/2 29/9/2
f 33/40/3 34/41/3 27/18/3 28/17/3
f 35/42/6 33/43/6 28/31/6 16/37/6
f 34/44/5 36/45/5 15/34/5 27/28/5
f 36/46/1 35/47/1 16/14/1 15/16/1
f 17/48/4 18/49/4 22/21/4 21/20/4
f 19/50/6 17/51/6 21/23/6 23/22/6
f 18/52/5 20/53/5 24/25/5 22/24/5
f 39/54/2 40/55/2 38/27/2 37/26/2
f 41/56/1 42/57/1 23/14/1 24/16/1
f 43/58/5 41/59/5 24/25/5 20/53/5
f 42/60/6 44/61/6 19/50/6 23/22/6
f 44/62/3 43/63/3 20/18/3 19/17/3
f 47/64/1 48/65/1 46/57/1 45/56/1
f 39/66/5 37/67/5 41/59/5 43/58/5
f 38/68/6 40/69/6 44/61/6 42/60/6
f 40/70/3 39/71/3 43/63/3 44/62/3
f 45/72/4 46/73/4 42/20/4 41/21/4
f 47/74/5 45/75/5 41/59/5 37/67/5
f 46/76/6 48/77/6 38/68/6 42/60/6
f 48/78/2 47/79/2 37/26/2 38/27/2
f 51/80/3 52/81/3 50/41/3 49/40/3
f 31/82/6 29/83/6 33/43/6 35/42/6
f 30/84/5 32/85/5 36/45/5 34/44/5
f 32/86/1 31/87/1 35/47/1 36/46/1
f 49/88/4 50/89/4 34/6/4 33/5/4
f 51/90/6 49/91/6 33/43/6 29/83/6
f 50/92/5 52/93/5 30/84/5 34/44/5
f 52/94/2 51/95/2 29/9/2 30/10/2

