# ProBuilder 4.0.5
# https://unity3d.com/unity/features/worldbuilding/probuilder
# 14/10/2019 9:41:09

mtllib ./RedDoor.mtl
o RedDoor

g RedDoor
v 4.750001 0.3699999 -24.14
v 4.750002 0.3699999 -14.14
v 4.750001 1.37 -24.14
v 4.750002 1.37 -14.14
v -5.249999 0.3699999 -14.14
v -5.25 0.3699999 -24.14
v -5.249999 1.37 -14.14
v -5.25 1.37 -24.14
v -5.25 1.37 -25.1401
v -5.25 0.3699999 -25.1401
v 4.750001 0.3699999 -25.1401
v 4.750001 1.37 -25.1401
v -3.230345 0.3699999 -14.14
v -3.230345 1.37 -14.14
v -3.230346 0.3699999 -25.1401
v -3.230346 1.37 -25.1401
v -3.230346 1.37 -24.14
v -3.230346 0.3699999 -24.14
v -3.230346 6.3701 -24.14
v -5.25 6.063317 -24.14
v -5.25 6.063317 -25.1401
v -3.230346 6.3701 -25.1401
v 2.717244 0.3699999 -14.14
v 2.717244 1.37 -14.14
v 2.717242 1.37 -25.1401
v 2.717242 0.3699999 -25.1401
v 2.717242 1.37 -24.14
v 2.717242 0.3699999 -24.14
v 2.717242 6.3701 -25.1401
v 4.750001 6.063317 -25.1401
v 4.750001 6.063317 -24.14
v 2.717242 6.3701 -24.14
v 4.750001 4.366543 -24.14
v 4.750001 4.366543 -25.1401
v -5.25 4.366543 -25.1401
v -5.25 4.366543 -24.14
v -3.230346 4.366543 -24.14
v -3.230346 4.366543 -25.1401
v 2.717243 4.366543 -24.14
v 2.717243 4.366543 -25.1401
v 4.750001 5.35993 -24.14
v 4.750001 5.35993 -25.1401
v -5.25 5.35993 -25.1401
v -5.25 5.35993 -24.14
v -3.230346 5.35993 -24.14
v -3.230346 5.35993 -25.1401
v 2.717243 5.35993 -24.14
v 2.717243 5.35993 -25.1401
v -2.228816 6.722655 -25.1401
v -2.228816 6.722655 -24.14
v -2.228816 4.719098 -24.14
v -2.228816 5.712485 -24.14
v -2.228816 5.712485 -25.1401
v -2.228816 4.719098 -25.1401
v 1.761474 6.722655 -25.1401
v 1.761474 6.722655 -24.14
v 1.761474 4.719098 -24.14
v 1.761474 5.712485 -24.14
v 1.761474 5.712485 -25.1401
v 1.761474 4.719098 -25.1401
v -0.2336709 7.095412 -25.1401
v -0.2336708 7.095412 -24.14
v -0.2336708 5.091855 -24.14
v -0.2336708 6.085242 -24.14
v -0.2336709 6.085242 -25.1401
v -0.2336709 5.091855 -25.1401

vt 4.49995 -3.362706
vt -5.50005 -3.362706
vt 4.49995 -2.362706
vt -5.50005 -2.362706
vt 5.50005 -3.362706
vt -4.49995 -3.362706
vt 5.50005 -2.362706
vt -4.49995 -2.362706
vt -2.980345 -3.362706
vt -4.999999 -3.362706
vt -4.999999 -2.362706
vt -2.980345 -2.362706
vt 4.999999 -3.362706
vt 2.980345 -3.362706
vt 2.980345 -2.362706
vt 4.999999 -2.362706
vt 5.50005 -2.980345
vt 5.50005 -4.999999
vt -4.49995 -4.999999
vt -4.49995 -2.980345
vt 4.49995 -4.999999
vt -5.50005 -4.999999
vt -5.50005 -2.980345
vt 4.49995 -2.980345
vt -4.49995 -2.986263
vt -4.49995 -5.005223
vt -5.50005 -5.005223
vt -5.50005 -2.986263
vt 5.000001 -3.362706
vt 2.967243 -3.362706
vt 2.967243 -2.362706
vt 5.000001 -2.362706
vt -5.000001 -3.362706
vt -5.000001 -2.362706
vt -2.967243 -2.362706
vt -2.967243 -3.362706
vt -4.49995 2.967243
vt 5.50005 2.967243
vt -4.49995 5.000001
vt 5.50005 5.000001
vt -5.50005 2.967243
vt 4.49995 2.967243
vt -5.50005 5.000001
vt 4.49995 5.000001
vt -5.50005 2.96131
vt -5.50005 4.994753
vt -4.49995 4.994753
vt -4.49995 2.96131
vt 4.49995 0.6338367
vt 5.50005 0.6338367
vt -5.50005 0.6338367
vt -4.49995 0.6338367
vt -4.999999 0.6338367
vt -2.980345 0.6338367
vt 2.980345 0.6338367
vt 4.999999 0.6338367
vt 2.967243 0.6338367
vt 5.000001 0.6338367
vt -5.000001 0.6338367
vt -2.967243 0.6338367
vt 4.49995 1.627224
vt 5.50005 1.627224
vt 4.49995 2.330611
vt 5.50005 2.330611
vt -5.50005 1.627224
vt -4.49995 1.627224
vt -5.50005 2.330611
vt -4.49995 2.330611
vt -4.999999 1.627224
vt -2.980345 1.627224
vt -4.999999 2.330611
vt -2.980345 2.637394
vt 2.980345 1.627224
vt 4.999999 1.627224
vt 2.980345 2.637394
vt 4.999999 2.330611
vt 2.967243 1.627224
vt 5.000001 1.627224
vt 2.967243 2.637394
vt 5.000001 2.330611
vt -5.000001 2.330611
vt -2.967243 2.637394
vt -2.967243 1.627224
vt -5.000001 1.627224
vt -5.50005 -1.985527
vt -4.49995 -1.985527
vt -1.978815 0.986392
vt -1.978815 1.979779
vt -1.978815 2.989949
vt 1.978815 1.979779
vt 1.978815 0.986392
vt 1.978815 2.989949
vt 5.50005 -1.982399
vt 5.50005 -2.982637
vt 4.49995 -2.982637
vt 4.49995 -1.982399
vt -5.50005 2.004752
vt -4.49995 2.004752
vt 2.011474 0.986392
vt 2.011474 1.979779
vt 2.011474 2.989949
vt -2.011474 1.979779
vt -2.011474 0.986392
vt -2.011474 2.989949
vt 4.49995 2.964912
vt 5.50005 2.964912
vt 5.50005 2.007863
vt 4.49995 2.007863
vt -5.50005 0.0087753
vt -4.49995 0.0087753
vt 0.01632977 1.359149
vt 0.01632977 2.352536
vt 0.01632977 3.362706
vt -0.01632977 2.352536
vt -0.01632977 1.359149
vt -0.01632977 3.362706
vt 4.49995 0.01137267
vt 5.50005 0.01137267

vn 1 0 -1.192093E-07
vn -1 0 1.192093E-07
vn 1.192093E-07 0 1
vn -1.192093E-07 0 -1
vn 0 1 0
vn 0 -1 0
vn -0.150176 0.9886593 1.790237E-08
vn 0.1492295 0.9888026 -1.778955E-08
vn -0.3320447 0.9432636 3.958281E-08
vn 0.3320447 -0.9432636 -3.958281E-08
vn 0.346077 0.9382061 -4.125559E-08
vn -0.3460769 -0.9382062 4.125557E-08
vn -0.183654 0.982991 2.189326E-08
vn 0.183654 0.982991 -2.189326E-08
vn 0.183654 -0.982991 -2.189326E-08
vn -0.183654 -0.982991 2.189326E-08

g RedDoor
usemtl ProBuilderDefault
f 3/3/1 4/4/1 2/2/1 1/1/1
f 7/7/2 8/8/2 6/6/2 5/5/2
f 9/4/2 10/2/2 6/6/2 8/8/2
f 11/5/1 12/7/1 3/3/1 1/1/1
f 14/12/3 7/11/3 5/10/3 13/9/3
f 10/13/4 9/16/4 16/15/4 15/14/4
f 14/17/5 17/20/5 8/19/5 7/18/5
f 6/21/6 18/24/6 13/23/6 5/22/6
f 10/18/6 15/17/6 18/24/6 6/21/6
f 19/25/7 22/28/7 21/27/7 20/26/7
f 4/32/3 24/31/3 23/30/3 2/29/3
f 24/31/3 14/12/3 13/9/3 23/30/3
f 26/36/4 25/35/4 12/34/4 11/33/4
f 15/14/4 16/15/4 25/35/4 26/36/4
f 24/38/5 27/37/5 17/20/5 14/17/5
f 4/40/5 3/39/5 27/37/5 24/38/5
f 18/24/6 28/42/6 23/41/6 13/23/6
f 2/43/6 23/41/6 28/42/6 1/44/6
f 15/17/6 26/38/6 28/42/6 18/24/6
f 1/44/6 28/42/6 26/38/6 11/40/6
f 31/47/8 30/46/8 29/45/8 32/48/8
f 34/50/1 33/49/1 3/3/1 12/7/1
f 8/8/2 36/52/2 35/51/2 9/4/2
f 37/54/3 36/53/3 8/11/3 17/12/3
f 16/15/4 9/16/4 35/56/4 38/55/4
f 33/58/3 39/57/3 27/31/3 3/32/3
f 25/35/4 40/60/4 34/59/4 12/34/4
f 42/62/1 41/61/1 33/49/1 34/50/1
f 30/64/1 31/63/1 41/61/1 42/62/1
f 36/52/2 44/66/2 43/65/2 35/51/2
f 43/65/2 44/66/2 20/68/2 21/67/2
f 45/70/3 44/69/3 36/53/3 37/54/3
f 19/72/3 20/71/3 44/69/3 45/70/3
f 35/56/4 43/74/4 46/73/4 38/55/4
f 43/74/4 21/76/4 22/75/4 46/73/4
f 41/78/3 47/77/3 39/57/3 33/58/3
f 31/80/3 32/79/3 47/77/3 41/78/3
f 42/84/4 48/83/4 29/82/4 30/81/4
f 40/60/4 48/83/4 42/84/4 34/59/4
f 17/20/5 27/37/5 25/41/5 16/23/5
f 16/7/1 38/50/1 37/49/1 17/3/1
f 40/51/2 25/4/2 27/8/2 39/52/2
f 50/86/9 49/85/9 22/28/9 19/25/9
f 52/88/3 45/70/3 37/54/3 51/87/3
f 50/89/3 19/72/3 45/70/3 52/88/3
f 38/55/4 46/73/4 53/90/4 54/91/4
f 53/90/4 46/73/4 22/75/4 49/92/4
f 37/95/10 38/94/10 54/93/10 51/96/10
f 32/48/11 29/45/11 55/97/11 56/98/11
f 58/100/3 57/99/3 39/57/3 47/77/3
f 56/101/3 58/100/3 47/77/3 32/79/3
f 40/60/4 60/103/4 59/102/4 48/83/4
f 48/83/4 59/102/4 55/104/4 29/82/4
f 60/107/12 40/106/12 39/105/12 57/108/12
f 62/110/13 61/109/13 49/85/13 50/86/13
f 56/98/14 55/97/14 61/109/14 62/110/14
f 58/100/3 64/112/3 63/111/3 57/99/3
f 64/112/3 52/88/3 51/87/3 63/111/3
f 56/101/3 62/113/3 64/112/3 58/100/3
f 62/113/3 50/89/3 52/88/3 64/112/3
f 66/115/4 65/114/4 59/102/4 60/103/4
f 54/91/4 53/90/4 65/114/4 66/115/4
f 65/114/4 61/116/4 55/104/4 59/102/4
f 53/90/4 49/92/4 61/116/4 65/114/4
f 54/93/15 66/118/15 63/117/15 51/96/15
f 63/117/16 66/118/16 60/107/16 57/108/16

